<?xml version="1.0" encoding="utf-8"?>
<!-- Generator: Adobe Illustrator 19.0.0, SVG Export Plug-In . SVG Version: 6.00 Build 0)  -->
<svg version="1.1" id="Lager_1" xmlns="http://www.w3.org/2000/svg" xmlns:xlink="http://www.w3.org/1999/xlink" x="0px" y="0px"
	 viewBox="0 0 463 140" style="enable-background:new 0 0 463 140;" xml:space="preserve">
<style type="text/css">
	.st0{clip-path:url(#SVGID_2_);fill-rule:evenodd;clip-rule:evenodd;fill:#D24887;}
	.st1{clip-path:url(#SVGID_2_);fill-rule:evenodd;clip-rule:evenodd;fill:#E9569F;}
	.st2{clip-path:url(#SVGID_2_);fill-rule:evenodd;clip-rule:evenodd;fill:#B8417D;}
	.st3{fill:#D24787;}
	.st4{font-family:'Goldplay-Regular';}
	.st5{font-size:55.2789px;}
	.st6{font-size:4.6066px;}
	.st7{font-family:'Goldplay-Medium';}
	.st8{font-size:12.8984px;}
	.st9{font-family:'Goldplay-Bold';}
</style>
<g>
	<defs>
		<rect id="SVGID_1_" x="-132" y="-331" width="800" height="800"/>
	</defs>
	<clipPath id="SVGID_2_">
		<use xlink:href="#SVGID_1_"  style="overflow:visible;"/>
	</clipPath>
	<polygon class="st0" points="102.9,48.7 113.3,54.8 103.2,73.5 	"/>
	<polygon class="st1" points="113.3,54.8 118.5,61.1 107.9,64.8 	"/>
	<polygon class="st0" points="118.5,61.1 119.9,63.4 115.5,62.2 	"/>
	<polygon class="st2" points="103.1,60.5 103.4,87.1 80.2,73.1 	"/>
	<polygon class="st1" points="102.9,48.7 80.2,73.1 103.1,60.5 	"/>
	<polygon class="st1" points="31,8.6 30.8,50.7 53.3,34.4 	"/>
	<polygon class="st1" points="53.3,34.4 77.7,48 43.4,80.9 	"/>
	<polygon class="st2" points="53.3,34.4 30.8,50.7 43.4,80.9 	"/>
	<polygon class="st2" points="77.7,48 43.4,80.9 81.4,90.4 	"/>
	<polygon class="st0" points="81.4,90.4 92.1,92.3 77.7,48 	"/>
	<polygon class="st1" points="87.3,77.3 97.7,111.7 103.4,87.1 	"/>
	<polygon class="st2" points="71.9,88 81.4,90.4 66,101.1 	"/>
	<polygon class="st0" points="66,101.1 40.1,125.5 46.6,126.1 	"/>
	<polygon class="st1" points="66,101.1 81.4,90.4 91.8,92.2 	"/>
	<polygon class="st0" points="66,101.1 91.8,92.2 97.7,111.7 	"/>
	<polygon class="st2" points="66,101.1 97.7,111.7 83.9,123.2 	"/>
	<polygon class="st2" points="36.4,129 26.3,126.9 66,101.1 	"/>
	<polygon class="st1" points="66,101.1 22.4,129.4 10.3,125.6 	"/>
	<polygon class="st1" points="66,101.1 51.1,120.3 83.9,123.2 	"/>
</g>
<g>
	<text transform="matrix(1 0 0 1 120.8973 111.293)"><tspan x="0" y="0" class="st3 st4 st5">S</tspan><tspan x="29.4" y="0" class="st3 st4 st6"> </tspan><tspan x="30.6" y="0" class="st3 st4 st5">K</tspan><tspan x="62.6" y="0" class="st3 st4 st6"> </tspan><tspan x="63.8" y="0" class="st3 st4 st5">A</tspan><tspan x="100.3" y="0" class="st3 st4 st6"> </tspan><tspan x="101.5" y="0" class="st3 st4 st5">P</tspan><tspan x="133.4" y="0" class="st3 st4 st6"> </tspan><tspan x="134.6" y="0" class="st3 st4 st5">A</tspan><tspan x="171.1" y="0" class="st3 st7 st8"> </tspan><tspan x="174.2" y="0" class="st3 st9 st5">C</tspan><tspan x="211.4" y="0" class="st3 st7 st8"> </tspan><tspan x="214.5" y="0" class="st3 st9 st5">V</tspan><tspan x="253.1" y="0" class="st3 st4 st5">.</tspan><tspan x="264.9" y="0" class="st3 st4 st6"> </tspan><tspan x="266" y="0" class="st3 st4 st5">S</tspan><tspan x="295.5" y="0" class="st3 st4 st6"> </tspan><tspan x="296.7" y="0" class="st3 st4 st5">E</tspan></text>
</g>
</svg>
